# xmcd
# Copyright (C) 1995-1998 Ti Kan
#
# Track frame offsets:
#       150
#       111559
#       181827
#
# Disc length: 3304 seconds
#
# Revision: 0
# Processed by: cddbd v1.5.2PL0 Copyright (c) Steve Scherf et al.
# Submitted via: CD-Transfer v1.0
#
DISCID=220ce603
DTITLE=Mauro Grossud - 
DYEAR=07
DGENRE=
TTITLE0=Fasnacht Zofingen1
TTITLE1=Fasnacht Zofingen2
TTITLE2=Fasnacht Zofingen3
EXTD=
EXTT0=
EXTT1=
EXTT2=
PLAYORDER=
